<svg width="38" height="39" viewBox="0 0 38 39" fill="none" xmlns="http://www.w3.org/2000/svg">
<path d="M20.4616 20.6731L23.1387 17.9961C23.7745 18.2752 24.3383 18.5643 24.8301 18.8633C26.1614 19.6517 27.1437 20.5758 27.777 21.6357C28.4232 22.6955 28.7463 23.9428 28.7463 25.3774C28.7463 27.6651 27.8545 29.5005 26.0709 30.8834C24.2873 32.2535 21.9026 32.9385 18.917 32.9385C16.9782 32.9385 15.1688 32.5701 13.4885 31.8334C12.4969 31.391 11.6381 30.8541 10.9121 30.2226L13.2622 27.8725C13.4417 28.0661 13.6399 28.249 13.8569 28.4212C15.1235 29.4035 16.8102 29.8947 18.917 29.8947C20.8815 29.8947 22.3873 29.494 23.4342 28.6927C24.4811 27.8913 25.0046 26.7992 25.0046 25.4162C25.0046 24.0332 24.5199 22.9669 23.5505 22.2173C22.8886 21.6965 21.8589 21.1818 20.4616 20.6731Z" fill="#FFD600"/>
<path d="M9.59173 28.7705C10.4328 29.9551 11.5941 30.9117 13.0757 31.6403C12.2566 31.2374 11.5354 30.7648 10.9121 30.2227L13.2621 27.8727C12.405 26.948 11.9764 25.7803 11.9764 24.3696H8.23462C8.23462 26.011 8.68699 27.478 9.59173 28.7705Z" fill="#F09E00"/>
<path d="M11.2978 16.5953C12.7583 17.9265 15.0848 19.051 18.2773 19.9687C20.3894 20.5798 21.959 21.1996 22.9861 21.8285C22.3516 21.44 21.5102 21.0549 20.4616 20.6732L23.1385 17.9963C22.0702 17.5272 20.7988 17.086 19.3242 16.6728C16.9848 16.0136 15.3239 15.2899 14.3416 14.5014C13.7666 14.0261 13.3622 13.4894 13.1282 12.8912L10.1117 15.1797C9.45491 14.1379 9.12649 12.9553 9.12649 11.6319C9.12649 13.5965 9.85023 15.2511 11.2978 16.5953Z" fill="#F09E00"/>
<path d="M23.6241 4.92847L20.6531 7.18244C20.0655 7.05971 19.4222 6.99834 18.7232 6.99834C20.7007 6.99834 22.2323 7.48969 23.318 8.47198C24.4036 9.44134 24.9465 10.7791 24.9465 12.4852H28.6882C28.6882 10.9212 28.2682 9.48012 27.4281 8.16178C26.6009 6.84344 25.4247 5.80945 23.8996 5.05981C23.8085 5.01467 23.7167 4.97089 23.6241 4.92847Z" fill="#F09E00"/>
<path d="M10.1117 15.1797L13.1283 12.8911C12.9679 12.4809 12.8876 12.0417 12.8876 11.5737C12.8876 10.139 13.3982 9.02105 14.4192 8.2197C15.4532 7.40544 16.8879 6.9983 18.7232 6.9983C19.4222 6.9983 20.0655 7.05967 20.6531 7.1824L23.6243 4.92829C22.1789 4.26616 20.5453 3.9351 18.7232 3.9351C15.8797 3.9351 13.5662 4.66536 11.7826 6.12587C10.0118 7.57346 9.12649 9.40879 9.12649 11.6319C9.12649 12.9552 9.45491 14.1378 10.1117 15.1797Z" fill="#FF5C00"/>
<path d="M7.32841 38.3094H3.09726L5.98905 35.3626H7.32841V38.3094Z" fill="#3DB9FF"/>
<path d="M5.98901 35.3625L3.09722 38.3093H-1.90735e-05L-1.90735e-05 22.6409L3.58664 20.0036L3.58664 35.3625H5.98901Z" fill="#0095E9"/>
<path d="M3.58668 20.0037L3.58666 2.94687H7.32841V0H0V24.3094L2.28882e-05 22.6409L3.58668 20.0037Z" fill="#0068A3"/>
<path d="M30.6909 35.3625H34.3939V6.4166L37.9999 2.74187V38.3094H30.6909V35.3625Z" fill="#3DB9FF"/>
<path d="M37.9999 9.53674e-05L30.6909 0V0.0741005L30.7916 9.53674e-05H37.9999Z" fill="#3DB9FF"/>
<path d="M38 2.74185L34.394 6.41658L34.394 2.94694H30.691V0.0740738L30.7916 6.86646e-05H38V2.74185Z" fill="#0095E9"/>
</svg>
