<svg width="184" height="175" viewBox="0 0 184 175" fill="none" xmlns="http://www.w3.org/2000/svg">
<path d="M55.5375 64.697C55.5375 69.3831 51.5722 73.1819 46.6807 73.1819C41.7893 73.1819 37.824 69.3831 37.824 64.697C37.824 60.011 41.7893 56.2122 46.6807 56.2122C51.5722 56.2122 55.5375 60.011 55.5375 64.697Z" fill="black"/>
<path d="M102.035 57.2727C102.035 61.9587 98.07 65.7575 93.1785 65.7575C88.2871 65.7575 84.3218 61.9587 84.3218 57.2727C84.3218 52.5866 88.2871 48.7878 93.1785 48.7878C98.07 48.7878 102.035 52.5866 102.035 57.2727Z" fill="black"/>
<path fill-rule="evenodd" clip-rule="evenodd" d="M99.8212 15.1526C94.7975 14.2564 89.6168 13.7878 84.3219 13.7878C37.8531 13.7878 0.182617 49.8764 0.182617 94.3939C0.182617 138.911 37.8531 175 84.3219 175C130.791 175 168.461 138.911 168.461 94.3939C168.461 90.7987 168.215 87.2585 167.739 83.7878H159.651C160.185 87.2535 160.461 90.7953 160.461 94.3939C160.461 134.173 126.699 167 84.3219 167C41.9444 167 8.18262 134.173 8.18262 94.3939C8.18262 54.6147 41.9444 21.7878 84.3219 21.7878C89.6406 21.7878 94.8236 22.3049 99.8212 23.288V15.1526Z" fill="black"/>
<path d="M151.706 0V63.6364M116.428 31.3433H183.961" stroke="green" stroke-width="6"/>
<path d="M53.3232 107.121H89.3039" stroke="black" stroke-width="8" stroke-linecap="round" stroke-linejoin="round"/>
</svg>
